<?xml version="1.0" encoding="utf-8"?>
<!-- Generator: Adobe Illustrator 16.0.0, SVG Export Plug-In . SVG Version: 6.00 Build 0)  -->
<!DOCTYPE svg PUBLIC "-//W3C//DTD SVG 1.1//EN" "http://www.w3.org/Graphics/SVG/1.1/DTD/svg11.dtd">
<svg xmlns="http://www.w3.org/2000/svg" xmlns:xlink="http://www.w3.org/1999/xlink" version="1.1" id="Place_x5F_POI" x="0px" y="0px" width="512" height="512" viewBox="0 0 144.083 144" enable-background="new 0 0 144.083 144" xml:space="preserve">
<path d="M88.289,23.074H55.794c-11.677,0-21.176,9.499-21.176,21.175v32.493c0,11.676,9.499,21.175,21.176,21.175h3.774  l12.474,23.009l12.472-23.009h3.774c11.677,0,21.176-9.499,21.176-21.175V44.249C109.464,32.573,99.965,23.074,88.289,23.074z   M103.464,76.742c0,8.367-6.808,15.175-15.176,15.175h-7.347l-8.899,16.419l-8.901-16.419h-7.347  c-8.368,0-15.176-6.808-15.176-15.175V44.249c0-8.367,6.808-15.175,15.176-15.175h32.494c8.368,0,15.176,6.808,15.176,15.175V76.742  z"/>
<path d="M72.042,53.8c-4.768,0-8.646,3.879-8.646,8.646s3.879,8.646,8.646,8.646s8.646-3.879,8.646-8.646S76.81,53.8,72.042,53.8z   M72.042,65.093c-1.459,0-2.646-1.188-2.646-2.646s1.188-2.646,2.646-2.646s2.646,1.188,2.646,2.646S73.501,65.093,72.042,65.093z"/>
<path d="M87.429,46.584H73.539v-1.888c0-2.727-2.218-4.944-4.943-4.944h-7.729c-2.726,0-4.943,2.218-4.943,4.944v1.931  c-3.097,0.363-5.508,3.004-5.508,6.197v19.521c0,3.439,2.8,6.238,6.24,6.238h30.773c3.439,0,6.238-2.799,6.238-6.238V52.824  C93.667,49.384,90.869,46.584,87.429,46.584z M87.667,72.346c0,0.132-0.106,0.238-0.238,0.238H56.656  c-0.133,0-0.24-0.106-0.24-0.238V52.824c0-0.133,0.107-0.24,0.24-0.24h5.268v-6.832h5.615v6.832h19.891  c0.132,0,0.238,0.107,0.238,0.24V72.346z"/>
</svg>
