<svg id="Layer_1" height="512" viewBox="0 0 512 512" width="512" xmlns="http://www.w3.org/2000/svg" data-name="Layer 1"><path d="m496 139.37v287.41a40 40 0 0 1 -40 40h-400a40 40 0 0 1 -40-40v-287.41z" fill="#e48e66"/><path d="m496 85.22v54.15h-480v-54.15a40 40 0 0 1 40-40h400a40 40 0 0 1 40 40z" fill="#f8ec7d"/><circle cx="379.87" cy="233.56" fill="#6fe3ff" r="62.07"/><path d="m254.44 203.5a7.869 7.869 0 0 1 -3.7 6.9l-96.78 58.27c-17.5 10.54-40.15 9.13-58.5-3.63a5.488 5.488 0 0 1 -2.07-2.75 5.213 5.213 0 0 1 -.31-1.78 4.416 4.416 0 0 1 2.08-3.87l15.58-9.38 39.87-24.01 30.62-18.44 20.6-12.4c14.47-8.72 33.19-7.55 48.36 3a9.891 9.891 0 0 1 4.25 8.09zm-51.52 10.14a1.388 1.388 0 1 0 -1.43-2.38 1.388 1.388 0 0 0 1.43 2.38zm-53.44 32.18a1.388 1.388 0 1 0 -1.9-.47 1.375 1.375 0 0 0 1.9.47z" fill="#f8ec7d"/><path d="m181.23 204.81-30.62 18.44-43.51-47.06 7.79-4.7z" fill="#6fe3ff"/><path d="m110.74 247.26-15.58 9.38a4.416 4.416 0 0 0 -2.08 3.87 5.213 5.213 0 0 0 .31 1.78l-.12.04-25.03-41.57 7.79-4.69z" fill="#6fe3ff"/><path d="m221.686 206.731a6 6 0 0 1 -3.1-11.14l17.051-10.271a6 6 0 0 1 6.191 10.28l-17.051 10.27a5.973 5.973 0 0 1 -3.091.861z" fill="#6fe3ff"/><path d="m130.961 262.723a7.377 7.377 0 1 1 6.289-11.223c.019.029.036.059.054.088a7.438 7.438 0 0 1 -2.494 10.079 7.538 7.538 0 0 1 -3.849 1.056z" fill="#e48e66"/><path d="m148.787 252.024a7.506 7.506 0 0 1 -1.8-.221 7.388 7.388 0 1 1 8.1-10.98 7.376 7.376 0 0 1 -2.551 10.159 7.231 7.231 0 0 1 -3.749 1.042z" fill="#e48e66"/><path d="m166.6 241.294a7.388 7.388 0 0 1 -3.828-13.718 7.384 7.384 0 0 1 10.132 2.509c.009.016.019.031.029.047a7.4 7.4 0 0 1 -2.548 10.1 7.278 7.278 0 0 1 -3.785 1.062z" fill="#e48e66"/><path d="m184.4 230.566a7.383 7.383 0 1 1 3.83-1.068 7.5 7.5 0 0 1 -3.83 1.068z" fill="#e48e66"/><path d="m202.228 219.826a7.409 7.409 0 0 1 -6.318-3.511c-.019-.032-.039-.063-.057-.095a7.441 7.441 0 0 1 2.492-10.07c.032-.019.063-.039.095-.057a7.427 7.427 0 0 1 10.09 2.536l.015.024a7.372 7.372 0 0 1 -6.317 11.173z" fill="#e48e66"/><g fill="#f8ec7d"><path d="m214.89 369.22h-144.83a6 6 0 0 1 0-12h144.83a6 6 0 0 1 0 12z"/><path d="m214.89 400.26h-144.83a6 6 0 0 1 0-12h144.83a6 6 0 0 1 0 12z"/><path d="m214.89 338.19h-144.83a6 6 0 0 1 0-12h144.83a6 6 0 0 1 0 12z"/><path d="m214.89 431.29h-144.83a6 6 0 0 1 0-12h144.83a6 6 0 1 1 0 12z"/><path d="m441.94 369.22h-144.83a6 6 0 0 1 0-12h144.83a6 6 0 1 1 0 12z"/><path d="m441.94 400.26h-144.83a6 6 0 0 1 0-12h144.83a6 6 0 1 1 0 12z"/><path d="m441.94 338.19h-144.83a6 6 0 0 1 0-12h144.83a6 6 0 0 1 0 12z"/><path d="m441.94 431.29h-144.83a6 6 0 0 1 0-12h144.83a6 6 0 0 1 0 12z"/></g><path d="m372.55 254.19a6 6 0 0 1 -4.243-1.757l-14.63-14.633a6 6 0 1 1 8.486-8.485l10.387 10.388 25.016-25.017a6 6 0 0 1 8.487 8.484l-29.26 29.261a6 6 0 0 1 -4.243 1.759z" fill="#2561a1"/><path d="m186.19 75.27a17.735 17.735 0 1 1 -17.8 17.68 17.735 17.735 0 0 1 17.8-17.68z" fill="#6fe3ff"/><path d="m127.19 75.02a17.735 17.735 0 1 1 -17.79 17.68 17.737 17.737 0 0 1 17.79-17.68z" fill="#6fe3ff"/><path d="m68.2 74.77a17.74 17.74 0 1 1 -17.79 17.68 17.728 17.728 0 0 1 17.79-17.68z" fill="#6fe3ff"/></svg>